# xmcd
#
# Track frame offsets:
#	150
#	16501
#	39046
#	65399
#	71718
#	109705
#	131143
#	147911
#	166287
#	189372
#	209167
#
# Disc length: 3084 seconds
#
# Revision: 1
# Processed by: cddbd v1.5.1PL0 Copyright (c) Steve Scherf et al.
# Submitted via: EasyCDDAExtractor 8.0.2.1
#
DISCID=970c0a0b
DTITLE=Dio - Dokken - New Orleans 85 - Hollywood 84
DYEAR=1985
DGENRE=Hard Rock
TTITLE0=King Of Rock 'n' Roll
TTITLE1=Like The Beat Of A Heart
TTITLE2=Don't Talk To Strangers
TTITLE3=Interview
TTITLE4=The Last In Line
TTITLE5=Tooth Or Nail
TTITLE6=When Heaven Comes Down
TTITLE7=Don't Close Your Eyes
TTITLE8=Just Got Lucky
TTITLE9=Alone Again
TTITLE10=Bullets To Spare
EXTD=
EXTT0=
EXTT1=
EXTT2=
EXTT3=
EXTT4=
EXTT5=
EXTT6=
EXTT7=
EXTT8=
EXTT9=
EXTT10=
PLAYORDER=
